<svg id="Layer_1" data-name="Layer 1" xmlns="http://www.w3.org/2000/svg" viewBox="0 0 324.01 400.09"><defs><style>.cls-1,.cls-2{fill:#262525;}.cls-2{stroke:#fff;stroke-miterlimit:10;stroke-width:0.17px;}</style></defs><path class="cls-1" d="M395.1,143.8v21.8a256.56,256.56,0,0,1-17.7,70.7c-13.6,27.2-34,51.7-58.5,69.4a249.84,249.84,0,0,1-43.5,20.4H274A146.55,146.55,0,0,0,329.8,288c13.6-12.2,23.1-27.2,31.3-43.5,15-32.7,21.8-69.4,17.7-106.1-23.1-4.1-62.6,5.4-127.9,40.8C146.1,237.7,94.4,190.1,94.4,190.1s2.7,9.5,2.7,15C108,289.4,184.2,318,203.3,323.4s32.7,12.2,47.6,10.9c16.3-1.4,32.7-4.1,47.6-10.9S386.9,281.2,406,205c0-5.4,1.4-9.5,2.7-15C411.4,173.7,407.3,156.1,395.1,143.8Z" transform="translate(-87.6 -49.82)"/><path class="cls-2" d="M363.8,63.5,347.5,49.9H331.2c9.5,5.4,17.7,12.2,25.9,20.4C387,98.9,402,137,402,177.8a152.4,152.4,0,0,1-304.8,0c0-40.8,15-78.9,44.9-107.5,6.8-8.2,16.3-15,24.5-20.4h-15a150.55,150.55,0,0,0-16.3,13.6,161,161,0,0,0-1.4,227.2l1.4,1.4a161,161,0,0,0,227.2,1.4l1.4-1.4a161,161,0,0,0,1.4-227.2l-1.5-1.4Z" transform="translate(-87.6 -49.82)"/><path class="cls-1" d="M255,330.2V449.9H244.1V330.2Z" transform="translate(-87.6 -49.82)"/><path class="cls-1" d="M348.8,449.9H154.3V439H348.9v10.9Z" transform="translate(-87.6 -49.82)"/></svg>